<svg xmlns="http://www.w3.org/2000/svg" width="1200" height="720" viewBox="0 0 1200 720"><rect width="1200" height="720" fill="#0b0a12"/><defs><pattern id="dots" width="24" height="24" patternUnits="userSpaceOnUse"><circle cx="2" cy="2" r="1" fill="#2b2640"/></pattern><linearGradient id="current"><stop stop-color="#b9a2ff"/><stop offset="1" stop-color="#7ee8df"/></linearGradient></defs><rect width="1200" height="720" fill="url(#dots)"/><g fill="none" stroke-width="2"><path d="M0 64 H174 L680 362 H600" stroke="#7ee8df" stroke-opacity="0.21708531891927124"/><circle cx="680" cy="362" r="5" fill="#0b0a12" stroke="#7ee8df"/><path d="M1200 94 H1030 L623 225 H600" stroke="#b9a2ff" stroke-opacity="0.26090569868683816"/><circle cx="623" cy="225" r="5" fill="#0b0a12" stroke="#7ee8df"/><path d="M0 124 H232 L577 589 H600" stroke="#b9a2ff" stroke-opacity="0.5673233189620077"/><circle cx="577" cy="589" r="5" fill="#0b0a12" stroke="#7ee8df"/><path d="M1200 154 H818 L542 568 H600" stroke="#7ee8df" stroke-opacity="0.3289781266823411"/><circle cx="542" cy="568" r="5" fill="#0b0a12" stroke="#7ee8df"/><path d="M0 184 H366 L685 184 H600" stroke="#b9a2ff" stroke-opacity="0.47362702740356327"/><circle cx="685" cy="184" r="5" fill="#0b0a12" stroke="#7ee8df"/><path d="M1200 214 H984 L732 389 H600" stroke="#b9a2ff" stroke-opacity="0.5224507700651884"/><circle cx="732" cy="389" r="5" fill="#0b0a12" stroke="#7ee8df"/><path d="M0 244 H393 L466 562 H600" stroke="#7ee8df" stroke-opacity="0.3804897380061448"/><circle cx="466" cy="562" r="5" fill="#0b0a12" stroke="#7ee8df"/><path d="M1200 274 H904 L533 520 H600" stroke="#b9a2ff" stroke-opacity="0.6607711462303996"/><circle cx="533" cy="520" r="5" fill="#0b0a12" stroke="#7ee8df"/><path d="M0 304 H249 L543 576 H600" stroke="#b9a2ff" stroke-opacity="0.2686901449225843"/><circle cx="543" cy="576" r="5" fill="#0b0a12" stroke="#7ee8df"/><path d="M1200 334 H1018 L535 294 H600" stroke="#7ee8df" stroke-opacity="0.5982073292136192"/><circle cx="535" cy="294" r="5" fill="#0b0a12" stroke="#7ee8df"/><path d="M0 364 H230 L690 248 H600" stroke="#b9a2ff" stroke-opacity="0.3164251551963389"/><circle cx="690" cy="248" r="5" fill="#0b0a12" stroke="#7ee8df"/><path d="M1200 394 H956 L462 193 H600" stroke="#b9a2ff" stroke-opacity="0.3381057621911168"/><circle cx="462" cy="193" r="5" fill="#0b0a12" stroke="#7ee8df"/><path d="M0 424 H198 L558 352 H600" stroke="#7ee8df" stroke-opacity="0.2166927012614906"/><circle cx="558" cy="352" r="5" fill="#0b0a12" stroke="#7ee8df"/><path d="M1200 454 H1041 L653 344 H600" stroke="#b9a2ff" stroke-opacity="0.3033990699797869"/><circle cx="653" cy="344" r="5" fill="#0b0a12" stroke="#7ee8df"/><path d="M0 484 H377 L644 478 H600" stroke="#b9a2ff" stroke-opacity="0.6509245534427464"/><circle cx="644" cy="478" r="5" fill="#0b0a12" stroke="#7ee8df"/><path d="M1200 514 H899 L685 580 H600" stroke="#7ee8df" stroke-opacity="0.26336387153714896"/><circle cx="685" cy="580" r="5" fill="#0b0a12" stroke="#7ee8df"/><path d="M0 544 H330 L674 436 H600" stroke="#b9a2ff" stroke-opacity="0.4188691324554384"/><circle cx="674" cy="436" r="5" fill="#0b0a12" stroke="#7ee8df"/><path d="M1200 574 H924 L462 313 H600" stroke="#b9a2ff" stroke-opacity="0.4166285924613476"/><circle cx="462" cy="313" r="5" fill="#0b0a12" stroke="#7ee8df"/></g><rect x="478" y="268" width="244" height="184" rx="24" fill="#13111d" stroke="url(#current)" stroke-width="2"/><rect x="494" y="284" width="212" height="152" rx="16" fill="none" stroke="#3d3659"/><circle cx="600" cy="360" r="38" fill="none" stroke="url(#current)" stroke-width="2"/><circle cx="600" cy="360" r="12" fill="#7ee8df"/></svg>